<svg width="24" height="24" viewBox="0 0 24 24" fill="none" xmlns="http://www.w3.org/2000/svg">
<path d="M12 0.75C5.7875 0.75 0.75 5.7875 0.75 12C0.75 18.2125 5.7875 23.25 12 23.25C13.0375 23.25 13.875 22.4125 13.875 21.375C13.875 20.8875 13.6875 20.45 13.3875 20.1125C13.1 19.7875 12.9125 19.35 12.9125 18.875C12.9125 17.8375 13.75 17 14.7875 17H17C20.45 17 23.25 14.2 23.25 10.75C23.25 5.225 18.2125 0.75 12 0.75ZM5.125 12C4.0875 12 3.25 11.1625 3.25 10.125C3.25 9.0875 4.0875 8.25 5.125 8.25C6.1625 8.25 7 9.0875 7 10.125C7 11.1625 6.1625 12 5.125 12ZM8.875 7C7.8375 7 7 6.1625 7 5.125C7 4.0875 7.8375 3.25 8.875 3.25C9.9125 3.25 10.75 4.0875 10.75 5.125C10.75 6.1625 9.9125 7 8.875 7ZM15.125 7C14.0875 7 13.25 6.1625 13.25 5.125C13.25 4.0875 14.0875 3.25 15.125 3.25C16.1625 3.25 17 4.0875 17 5.125C17 6.1625 16.1625 7 15.125 7ZM18.875 12C17.8375 12 17 11.1625 17 10.125C17 9.0875 17.8375 8.25 18.875 8.25C19.9125 8.25 20.75 9.0875 20.75 10.125C20.75 11.1625 19.9125 12 18.875 12Z" fill="#888888"/>
</svg>
